<svg width="5538" height="1523" viewBox="0 0 5538 1523" fill="none" xmlns="http://www.w3.org/2000/svg">
<path d="M304.336 1146H182.336V652H295.336L305.336 716C336.336 666 396.336 637 463.336 637C587.336 637 651.336 714 651.336 842V1146H529.336V871C529.336 788 488.336 748 425.336 748C350.336 748 304.336 800 304.336 880V1146ZM742.203 898C742.203 744 853.203 638 1006.2 638C1159.2 638 1270.2 744 1270.2 898C1270.2 1052 1159.2 1158 1006.2 1158C853.203 1158 742.203 1052 742.203 898ZM864.203 898C864.203 988 922.203 1049 1006.2 1049C1090.2 1049 1148.2 988 1148.2 898C1148.2 808 1090.2 747 1006.2 747C922.203 747 864.203 808 864.203 898ZM1488.91 1146H1366.91V652H1478.91L1488.91 710C1513.91 669 1563.91 637 1634.91 637C1709.91 637 1761.91 674 1787.91 731C1812.91 674 1870.91 637 1945.91 637C2065.91 637 2131.91 709 2131.91 823V1146H2010.91V855C2010.91 784 1972.91 747 1914.91 747C1855.91 747 1810.91 785 1810.91 866V1146H1688.91V854C1688.91 785 1651.91 748 1593.91 748C1535.91 748 1488.91 786 1488.91 866V1146ZM2398.67 1159C2293.67 1159 2229.67 1098 2229.67 1005C2229.67 914 2295.67 857 2412.67 848L2560.67 837V826C2560.67 759 2520.67 732 2458.67 732C2386.67 732 2346.67 762 2346.67 814H2242.67C2242.67 707 2330.67 637 2464.67 637C2597.67 637 2679.67 709 2679.67 846V1146H2572.67L2563.67 1073C2542.67 1124 2475.67 1159 2398.67 1159ZM2438.67 1067C2513.67 1067 2561.67 1022 2561.67 946V920L2458.67 928C2382.67 935 2353.67 960 2353.67 1000C2353.67 1045 2383.67 1067 2438.67 1067ZM3002.52 1159C2859.52 1159 2770.52 1054 2770.52 901C2770.52 747 2860.52 637 3009.52 637C3078.52 637 3139.52 666 3170.52 715V402H3291.52V1146H3179.52L3171.52 1069C3141.52 1126 3077.52 1159 3002.52 1159ZM3029.52 1047C3114.52 1047 3169.52 986 3169.52 897C3169.52 808 3114.52 746 3029.52 746C2944.52 746 2892.52 809 2892.52 897C2892.52 985 2944.52 1047 3029.52 1047Z" fill="black"/>
<path d="M3583.25 1158C3470.25 1158 3391.25 1071 3391.25 946C3391.25 776 3502.25 649 3648.25 649C3731.25 649 3794.25 691 3815.25 761L3869.25 417H3934.25L3819.25 1146H3760.25L3769.25 1050C3725.25 1122 3663.25 1158 3583.25 1158ZM3596.25 1099C3708.25 1099 3795.25 995 3795.25 859C3795.25 764 3744.25 708 3653.25 708C3542.25 708 3457.25 810 3457.25 944C3457.25 1038 3511.25 1099 3596.25 1099ZM3963.49 938C3963.49 779 4087.49 649 4239.49 649C4366.49 649 4452.49 739 4452.49 869C4452.49 1029 4328.49 1158 4177.49 1158C4050.49 1158 3963.49 1069 3963.49 938ZM4030.49 935C4030.49 1036 4089.49 1099 4183.49 1099C4294.49 1099 4385.49 997 4385.49 872C4385.49 771 4326.49 708 4232.49 708C4121.49 708 4030.49 810 4030.49 935ZM4520.13 943C4520.13 777 4633.13 649 4779.13 649C4888.13 649 4957.13 709 4969.13 814H4901.13C4894.13 749 4847.13 709 4777.13 709C4670.13 709 4587.13 810 4587.13 940C4587.13 1036 4643.13 1099 4728.13 1099C4799.13 1099 4857.13 1059 4881.13 994H4949.13C4918.13 1095 4832.13 1158 4727.13 1158C4604.13 1158 4520.13 1070 4520.13 943ZM5005.92 1014H5071.92C5071.92 1067 5115.92 1103 5180.92 1103C5249.92 1103 5296.92 1068 5296.92 1015C5296.92 977 5279.92 957 5233.92 940L5154.92 913C5087.92 890 5052.92 849 5052.92 788C5052.92 705 5121.92 649 5225.92 649C5326.92 649 5387.92 705 5387.92 795H5321.92C5319.92 733 5287.92 704 5221.92 704C5157.92 704 5116.92 735 5116.92 785C5116.92 822 5137.92 846 5183.92 863L5260.92 890C5331.92 915 5361.92 951 5361.92 1012C5361.92 1099 5287.92 1158 5178.92 1158C5076.92 1158 5005.92 1099 5005.92 1014Z" fill="black"/>
</svg>
